<?xml version="1.0" encoding="UTF-8"?>
<svg version="1.1" xmlns="http://www.w3.org/2000/svg" width="512" height="512">
<path d="M0 0 C4.60093062 3.96059492 8.86629248 8.19057131 13.03125 12.609375 C14.206875 12.2175 15.3825 11.825625 16.59375 11.421875 C17.41230469 11.15117188 18.23085938 10.88046875 19.07421875 10.6015625 C21.24864718 9.87196564 23.4171173 9.12455014 25.58203125 8.3671875 C26.85676544 7.92706772 28.13150504 7.48696359 29.40625 7.046875 C31.18128906 6.42619141 31.18128906 6.42619141 32.9921875 5.79296875 C51.87473731 -0.09374645 74.31006496 0.42976305 93.03125 6.609375 C94.16046875 6.97160156 95.2896875 7.33382812 96.453125 7.70703125 C114.93218389 14.22775179 134.02490536 27.09985804 145.03125 43.609375 C147.80893454 44.06741556 147.80893454 44.06741556 151.11401367 43.99414062 C152.39261765 44.00425171 153.67122162 44.01436279 154.98857117 44.02478027 C155.67428381 44.02322433 156.35999645 44.0216684 157.06648827 44.02006531 C159.21539063 44.01559133 161.36346747 44.02957708 163.51228333 44.04846191 C168.08109182 44.0852988 172.64981491 44.09894747 177.21875 44.109375 C182.49707812 44.12147233 187.77500657 44.14319147 193.0531559 44.18937683 C195.1619983 44.20288656 197.27032791 44.19878565 199.37919617 44.19396973 C213.33457209 44.3029838 213.33457209 44.3029838 218.9921875 49.36328125 C219.45882813 49.96011719 219.92546875 50.55695313 220.40625 51.171875 C221.12941406 52.07099609 221.12941406 52.07099609 221.8671875 52.98828125 C224.3840717 56.4933381 224.16980062 59.56810101 224.15722656 63.73364258 C224.16002876 64.83394051 224.16002876 64.83394051 224.16288757 65.95646667 C224.16689536 67.55194052 224.16896676 69.14742011 224.16934967 70.74289894 C224.17276086 74.13473736 224.19411849 77.52638333 224.21458054 80.91815472 C224.25262425 87.23590783 224.28386528 93.55345722 224.28173828 99.87133789 C224.2809512 104.26353132 224.30431403 108.65502308 224.3436203 113.04703331 C224.35408402 114.72031182 224.35560155 116.39367128 224.34796906 118.0669651 C224.33834472 120.41105623 224.35953063 122.75302437 224.38769531 125.09692383 C224.37240028 126.13123032 224.37240028 126.13123032 224.35679626 127.18643188 C224.43702462 130.91583913 224.84524853 132.40425683 227.38397217 135.2039032 C228.69437469 136.39461174 228.69437469 136.39461174 230.03125 137.609375 C233.79432636 143.09288978 233.43742171 148.43855785 233.37182617 154.84716797 C233.37226425 155.96970474 233.37270233 157.09224152 233.37315369 158.24879456 C233.37106786 161.94989566 233.34774566 165.65054077 233.32421875 169.3515625 C233.31862209 171.92131299 233.31435232 174.49106669 233.31135559 177.06082153 C233.30108131 183.12746292 233.2774501 189.19391683 233.24730712 195.26048768 C233.21372524 202.16978306 233.19726762 209.0790864 233.18222082 215.98844314 C233.15089927 230.19550781 233.0981625 244.40243561 233.03125 258.609375 C234.28292969 258.73054688 235.53460938 258.85171875 236.82421875 258.9765625 C241.48628952 259.42788552 243.80092924 261.15368303 247.03125 264.609375 C250.85809952 271.20031301 250.46576185 277.73709805 250.4296875 285.20703125 C250.43255768 286.51465927 250.43542786 287.82228729 250.43838501 289.16954041 C250.4427897 291.927345 250.43643682 294.68485661 250.42236328 297.44262695 C250.40525511 300.96538336 250.4151339 304.48745475 250.43308067 308.0101862 C250.44656664 311.38835522 250.43710788 314.76634281 250.4296875 318.14453125 C250.43576019 319.40403091 250.44183289 320.66353058 250.4480896 321.9611969 C250.43863312 323.13939499 250.42917664 324.31759308 250.41943359 325.53149414 C250.41704681 326.56295059 250.41466003 327.59440704 250.41220093 328.65711975 C249.76678759 333.65887925 247.57838312 337.63043484 243.78125 340.921875 C243.23984375 341.41300781 242.6984375 341.90414063 242.140625 342.41015625 C239.21746521 344.07202672 236.33875572 344.19198101 233.03125 344.609375 C233.03401538 345.19044793 233.03678076 345.77152086 233.03962994 346.37020206 C233.10595855 360.52608586 233.15556398 374.68194628 233.18668652 388.83795261 C233.20213821 395.68377332 233.22319506 402.52949013 233.25756836 409.37524414 C233.29072735 415.9823222 233.30810596 422.58932074 233.31588173 429.19648552 C233.32142282 431.71665076 233.33224315 434.23681012 233.34844017 436.7569294 C233.37023136 440.28803372 233.37321613 443.81869272 233.37182617 447.34985352 C233.38800491 448.91107941 233.38800491 448.91107941 233.4045105 450.50384521 C233.37632997 457.12420419 232.84516993 462.39894817 228.3125 467.5703125 C227.7246875 468.03695313 227.136875 468.50359375 226.53125 468.984375 C225.9434375 469.46648437 225.355625 469.94859375 224.75 470.4453125 C220.97606979 473.00129251 217.41645491 472.73749444 212.99856758 472.74359608 C212.27468849 472.74594831 211.5508094 472.74830054 210.80499458 472.75072405 C208.3604702 472.75742221 205.91599887 472.75695558 203.47146606 472.75654602 C201.70860172 472.75984416 199.94573813 472.76356962 198.18287551 472.7676875 C193.32347524 472.77772172 188.46408732 472.78142659 183.60467815 472.78407681 C178.36925416 472.78797578 173.13383998 472.79755456 167.89842224 472.80628967 C155.24543932 472.82606806 142.59245558 472.83612311 129.93946105 472.84501746 C123.98188621 472.84939907 118.02431226 472.8547663 112.06673813 472.86000633 C92.26264442 472.87702179 72.45855127 472.89151526 52.65445137 472.89875507 C47.51312382 472.900665 42.37179628 472.90258532 37.23046875 472.90454102 C35.31366795 472.90526663 35.31366795 472.90526663 33.35814391 472.9060069 C12.66450483 472.91430447 -8.02907639 472.93963539 -28.72269021 472.97212169 C-49.96595224 473.00519899 -71.20918489 473.02320454 -92.45247281 473.02639931 C-104.38065305 473.02856404 -116.30874899 473.03730705 -128.23690414 473.06286049 C-138.39750154 473.0845768 -148.55799415 473.09261337 -158.71861212 473.08289371 C-163.90095731 473.07835143 -169.08308635 473.08023112 -174.26540184 473.09965515 C-179.01550438 473.11730497 -183.76523338 473.11627424 -188.51533999 473.10075786 C-190.22812624 473.09838453 -191.94093849 473.10269099 -193.65368508 473.11458651 C-207.48736859 473.20466585 -219.8387047 471.64023691 -230.96875 462.609375 C-231.59394531 462.10792969 -232.21914062 461.60648437 -232.86328125 461.08984375 C-240.78642859 453.99526083 -245.50830907 443.11510611 -246.15536571 432.56731856 C-246.23267159 428.8093591 -246.24532672 425.05407132 -246.23617554 421.29560852 C-246.23991553 419.83778737 -246.24451844 418.37996822 -246.24990618 416.92215222 C-246.26210865 412.92914471 -246.26187897 408.93622116 -246.25951743 404.94319928 C-246.25910856 400.63151779 -246.27015513 396.31986297 -246.27963257 392.00819397 C-246.29622875 383.56533082 -246.3017415 375.1224956 -246.30285732 366.6796175 C-246.30380851 359.81445011 -246.30792235 352.94929191 -246.31425858 346.08412743 C-246.3318677 326.60775651 -246.34109803 307.13140761 -246.33959763 287.65502868 C-246.33951772 286.60557087 -246.3394378 285.55611307 -246.33935547 284.47485352 C-246.33927371 283.42410993 -246.33919195 282.37336635 -246.33910771 281.29078206 C-246.33829504 264.26720428 -246.35742869 247.24371503 -246.3856322 230.22016285 C-246.41438208 212.72837855 -246.42817132 195.2366374 -246.42644465 177.74482888 C-246.42578145 167.92941466 -246.43124316 158.11409323 -246.45280075 148.29870033 C-246.47104029 139.94065279 -246.47533718 131.5827401 -246.4617819 123.22468124 C-246.45526606 118.96378505 -246.45508472 114.70314736 -246.4724884 110.442276 C-246.48828594 106.53428092 -246.48528808 102.62674788 -246.46792014 98.71876361 C-246.46486484 97.31231835 -246.46842666 95.90583803 -246.47964029 94.49943415 C-246.58991754 79.67527249 -243.39184036 67.55781403 -233.08984375 56.61328125 C-222.5618126 46.72331259 -210.40418974 44.25497968 -196.3671875 44.4140625 C-195.404711 44.4168924 -194.4422345 44.41972229 -193.45059204 44.42263794 C-190.41484465 44.43371922 -187.3794063 44.4588004 -184.34375 44.484375 C-182.26953555 44.49442041 -180.19531641 44.50354351 -178.12109375 44.51171875 C-173.07019574 44.53361891 -168.01952503 44.56806377 -162.96875 44.609375 C-162.77262619 44.0013353 -162.57650238 43.39329559 -162.37443542 42.76683044 C-162.11189468 41.96391068 -161.84935394 41.16099091 -161.57885742 40.33374023 C-161.19185921 39.14324318 -161.19185921 39.14324318 -160.79704285 37.92869568 C-157.28490739 28.09428938 -150.66255046 19.47037176 -143.96875 11.609375 C-143.30230469 10.75988281 -142.63585937 9.91039062 -141.94921875 9.03515625 C-127.31016107 -8.89552386 -102.0869498 -20.20523529 -79.49609375 -23.109375 C-50.42019632 -25.42771898 -22.88680472 -18.57246107 0 0 Z " fill="#A6725B" transform="translate(253.96875,31.390625)"/>
<path d="M0 0 C4.60093062 3.96059492 8.86629248 8.19057131 13.03125 12.609375 C14.206875 12.2175 15.3825 11.825625 16.59375 11.421875 C17.41230469 11.15117188 18.23085938 10.88046875 19.07421875 10.6015625 C21.24864718 9.87196564 23.4171173 9.12455014 25.58203125 8.3671875 C26.85676544 7.92706772 28.13150504 7.48696359 29.40625 7.046875 C30.58960938 6.63308594 31.77296875 6.21929687 32.9921875 5.79296875 C51.87473731 -0.09374645 74.31006496 0.42976305 93.03125 6.609375 C94.16046875 6.97160156 95.2896875 7.33382812 96.453125 7.70703125 C108.86328389 12.08621411 120.25252993 18.81299211 130.03125 27.609375 C130.54574707 28.06940918 131.06024414 28.52944336 131.59033203 29.00341797 C140.10891389 36.72689885 145.87024052 44.33292786 151.03125 54.609375 C151.64613281 55.73085937 152.26101563 56.85234375 152.89453125 58.0078125 C160.76918183 72.74538124 164.23040076 87.62075822 164.21875 104.296875 C164.21866943 105.36309082 164.21858887 106.42930664 164.21850586 107.52783203 C164.09543142 124.48101216 164.09543142 124.48101216 161.03125 130.609375 C56.75125 130.609375 -47.52875 130.609375 -154.96875 130.609375 C-169.50547067 101.53593367 -173.05467343 74.77259323 -163.22119141 43.5715332 C-159.11152528 31.61089584 -152.18808108 21.13112685 -143.96875 11.609375 C-143.30359375 10.76246094 -142.6384375 9.91554687 -141.953125 9.04296875 C-127.32570755 -8.89577352 -102.08329679 -20.20570489 -79.49609375 -23.109375 C-50.42019632 -25.42771898 -22.88680472 -18.57246107 0 0 Z " fill="#E0C43A" transform="translate(253.96875,31.390625)"/>
<path d="M0 0 C4.41011091 3.89502103 8.50748754 8.10683373 12.55517578 12.37353516 C10.0599663 15.12918738 7.25789453 16.90516431 4.11767578 18.87353516 C-18.6019 33.8827235 -33.39550835 56.54546676 -39.59326172 82.91259766 C-40.77972231 89.17763718 -40.70917933 95.4715369 -40.65063477 101.82324219 C-40.63235506 103.87008174 -40.63012607 105.91646599 -40.63037109 107.96337891 C-40.60369811 115.20322019 -40.16954469 122.1263304 -39.44482422 129.37353516 C-78.05482422 129.37353516 -116.66482422 129.37353516 -156.44482422 129.37353516 C-170.98154489 100.30009382 -174.53074765 73.53675339 -164.69726562 42.33569336 C-160.5875995 30.37505599 -153.6641553 19.89528701 -145.44482422 10.37353516 C-144.77966797 9.52662109 -144.11451172 8.67970703 -143.42919922 7.80712891 C-128.80178177 -10.13161336 -103.55937101 -21.44154474 -80.97216797 -24.34521484 C-51.25079409 -26.71502539 -23.03379319 -19.44638381 0 0 Z " fill="#FADC4C" transform="translate(255.44482421875,32.62646484375)"/>
<path d="M0 0 C1.88764824 -0.01925285 1.88764824 -0.01925285 3.81343079 -0.03889465 C5.18445439 -0.04706283 6.55548247 -0.05450641 7.92651367 -0.0612793 C8.62019232 -0.06535482 9.31387096 -0.06943035 10.02857018 -0.07362938 C13.70003329 -0.0944523 17.37145945 -0.10877049 21.04296875 -0.11816406 C24.82245176 -0.12922319 28.60134519 -0.16362731 32.38062 -0.20333576 C35.29840646 -0.22955654 38.21605348 -0.23786065 41.13394737 -0.24144554 C42.52653678 -0.24629713 43.91912055 -0.2578703 45.31159401 -0.27648354 C58.93013319 -0.44721578 58.93013319 -0.44721578 64.78198242 4.17700195 C68.62800555 9.13634757 69.90247113 12.73275945 69.94311523 18.93017578 C69.95272278 20.11182816 69.96233032 21.29348053 69.972229 22.51094055 C69.97647888 23.78906113 69.98072876 25.0671817 69.98510742 26.3840332 C69.9908075 27.69732101 69.99650757 29.01060883 70.00238037 30.36369324 C70.01288081 33.14529812 70.01872948 35.92687419 70.0222168 38.70849609 C70.02769462 42.26268714 70.05171089 45.81649377 70.08018875 49.37056446 C70.10336113 52.77087975 70.10526795 56.17114307 70.11010742 59.5715332 C70.12245422 60.84358109 70.13480103 62.11562897 70.14752197 63.42622375 C70.14452087 64.61733261 70.14151978 65.80844147 70.13842773 67.03564453 C70.14389618 68.60092644 70.14389618 68.60092644 70.1494751 70.1978302 C69.53018462 75.21826416 67.33964125 79.18893788 63.53198242 82.48950195 C62.99057617 82.98063477 62.44916992 83.47176758 61.89135742 83.9777832 C55.47058642 87.62811042 46.41926444 86.26180811 39.32495117 86.16137695 C38.02680984 86.14488098 36.72866852 86.12838501 35.39118958 86.11138916 C32.65020207 86.07506426 29.90933323 86.03387829 27.16845703 85.98999023 C23.68227232 85.93512083 20.19615496 85.89848655 16.70969677 85.86635971 C13.35207356 85.83153938 9.99484468 85.77632222 6.63745117 85.72387695 C5.39859665 85.71434998 4.15974213 85.704823 2.88334656 85.69500732 C-11.71109247 85.40976058 -22.17909894 81.07457166 -32.35864258 70.52856445 C-41.26013155 59.27079899 -42.53578907 46.99188113 -41.21801758 33.17700195 C-38.69222314 22.73403122 -32.24343395 13.67773336 -23.46801758 7.5246582 C-15.89959798 2.99149021 -8.82866621 0.07851362 0 0 Z " fill="#8F5C4A" transform="translate(434.218017578125,289.822998046875)"/>
<path d="M0 0 C0.9624765 0.0028299 1.924953 0.00565979 2.91659546 0.00857544 C5.95234285 0.01965672 8.9877812 0.0447379 12.0234375 0.0703125 C14.09765195 0.08035791 16.17187109 0.08948101 18.24609375 0.09765625 C23.29699176 0.11955641 28.34766247 0.15400127 33.3984375 0.1953125 C32.98271484 2.00515625 32.98271484 2.00515625 32.55859375 3.8515625 C32.19250673 5.46610013 31.82663267 7.08068607 31.4609375 8.6953125 C31.27853516 9.48679687 31.09613281 10.27828125 30.90820312 11.09375 C25.60588514 34.6167607 27.96483026 58.93953553 39.0859375 80.4609375 C40.3984375 83.1953125 40.3984375 83.1953125 40.3984375 86.1953125 C33.07027201 86.29744318 25.74229273 86.36708252 18.41357422 86.41503906 C15.92489768 86.43504917 13.43626752 86.46226593 10.94775391 86.49707031 C7.35307306 86.54605594 3.75901837 86.56838833 0.1640625 86.5859375 C-1.48199982 86.61690521 -1.48199982 86.61690521 -3.16131592 86.64849854 C-16.46937366 86.65229094 -27.17245896 82.21966699 -36.82421875 73.09375 C-45.30194452 64.12479152 -49.28345576 54.13515099 -49.9765625 41.8828125 C-49.62984351 30.33910981 -44.49751945 20.45900065 -36.72265625 12.19921875 C-26.1946251 2.30925009 -14.03700224 -0.15908282 0 0 Z " fill="#8F5C4A" transform="translate(57.6015625,75.8046875)"/>
<path d="M0 0 C8.3540203 -0.06967257 16.70791812 -0.12289843 25.06215763 -0.15543652 C28.94185246 -0.17105735 32.82134773 -0.19222949 36.70092773 -0.22631836 C40.44864792 -0.25904056 44.19617678 -0.27687994 47.94402885 -0.28463173 C49.37010139 -0.29015227 50.79616407 -0.30093244 52.22215462 -0.31719017 C68.09703919 -0.49089522 68.09703919 -0.49089522 73.9609375 4.75390625 C74.66089844 5.64916016 74.66089844 5.64916016 75.375 6.5625 C75.85710937 7.16191406 76.33921875 7.76132813 76.8359375 8.37890625 C79.36842897 11.90569807 79.13494208 15.01314054 79.11352539 19.20361328 C79.11367142 19.9451767 79.11381744 20.68674011 79.1139679 21.45077515 C79.11327 23.90731713 79.10548334 26.36378373 79.09765625 28.8203125 C79.09579163 30.5213924 79.09436794 32.22247284 79.09336853 33.92355347 C79.08954678 38.40506467 79.0797194 42.88654357 79.06866455 47.36804199 C79.05844308 51.9393673 79.05386933 56.51069781 79.04882812 61.08203125 C79.03809685 70.05470171 79.02102451 79.02734817 79 88 C78.19160675 87.75885216 78.19160675 87.75885216 77.36688232 87.51283264 C74.57567083 86.90806055 71.98670702 86.83740801 69.12988281 86.79467773 C67.94896057 86.77473251 66.76803833 86.75478729 65.55133057 86.73423767 C64.28142273 86.71752518 63.01151489 86.70081268 61.703125 86.68359375 C59.74726471 86.6524221 59.74726471 86.6524221 57.75189209 86.62062073 C54.29304192 86.56554764 50.8341336 86.5160736 47.37518311 86.46777344 C43.84251762 86.41745028 40.30993611 86.36182078 36.77734375 86.30664062 C29.85163537 86.19923979 22.92585106 86.09775503 16 86 C16.14088547 85.0600267 16.28177094 84.12005341 16.42692566 83.15159607 C16.70129204 81.28496056 16.70129204 81.28496056 16.98120117 79.38061523 C17.16333664 78.15189194 17.34547211 76.92316864 17.53312683 75.6572113 C18.19824902 70.44703311 18.34304519 65.30929035 18.3125 60.0625 C18.30686035 59.02544922 18.3012207 57.98839844 18.29541016 56.91992188 C18.00064459 38.18333825 12.24842205 21.70262622 2.63671875 5.79296875 C1 3 1 3 0 0 Z " fill="#8F5C49" transform="translate(399,76)"/>
<path d="M0 0 C6.47839746 4.20220376 10.63811387 9.64471989 13 17 C14.46881436 24.64680455 12.54239938 30.59860868 8.84375 37.32421875 C4.78290874 43.21760067 -0.17878843 46.10427867 -7 48 C-14.59915692 48.81082816 -21.8039759 48.89159797 -28 44 C-31.82383581 40.2975558 -34.6134822 36.7730356 -37 32 C-91.12 31.67 -145.24 31.34 -201 31 C-201 25.39 -201 19.78 -201 14 C-197.93807877 14.01118614 -197.93807877 14.01118614 -194.81430054 14.02259827 C-175.59677197 14.08852441 -156.37966125 14.1047703 -137.1620388 14.07515812 C-127.28148955 14.06112996 -117.40147798 14.06389707 -107.52099609 14.10620117 C-98.90909994 14.14303111 -90.29785945 14.14835016 -81.68593562 14.11582941 C-77.12568479 14.09970929 -72.56666376 14.09936904 -68.00651169 14.13676643 C-63.71310533 14.17147834 -59.42182655 14.16402137 -55.12848282 14.12437057 C-53.55391461 14.1172335 -51.97918969 14.1254379 -50.40480042 14.15022469 C-41.99275682 14.56595232 -41.99275682 14.56595232 -34.79385757 10.99789238 C-33.28848578 8.72411099 -32.17006387 6.45544693 -31 4 C-28.33203125 1.84375 -28.33203125 1.84375 -25.8125 0.5 C-24.55373047 -0.19609375 -24.55373047 -0.19609375 -23.26953125 -0.90625 C-15.67970853 -4.56399589 -7.44003715 -3.70019609 0 0 Z " fill="#E0C33A" transform="translate(209,310)"/>
<path d="M0 0 C8.93687296 -0.09074739 17.87343467 -0.16397158 26.81066608 -0.20724869 C30.96159948 -0.22803052 35.11219846 -0.25617348 39.26293945 -0.30175781 C43.27652919 -0.3455548 47.28979939 -0.36920763 51.30360985 -0.37950897 C52.82687591 -0.38684017 54.35012658 -0.40115459 55.87325478 -0.42292023 C70.19006736 -0.61917666 80.82159334 1.91466946 91.3125 12.0625 C94.62352016 15.44598356 97.69257789 18.95949769 100.6875 22.625 C101.81865234 23.99978516 101.81865234 23.99978516 102.97265625 25.40234375 C105 28 105 28 106.37109375 30.25390625 C107.79837954 32.45486097 108.72304808 33.66878992 111 35 C114.836402 35.3547358 118.52340156 35.24361714 122.37109375 35.078125 C129.44430509 34.92584919 133.23952336 37.02339028 138.3125 41.8125 C143.46433706 47.04793685 145.43852388 51.90360315 145.5 59.25 C145.32061491 67.19753946 143.6510723 72.8349418 138.390625 78.8359375 C133.09230478 83.81830284 127.29030021 86.0906551 120.0625 86.4375 C112.19400153 86.17159068 105.40962976 82.65552202 100 77 C94.35876434 69.2992656 94.01892759 61.2943702 95 52 C96.02734375 48.546875 96.02734375 48.546875 97 46 C96.38253906 45.33355469 95.76507813 44.66710937 95.12890625 43.98046875 C89.89314759 38.28249699 84.88760667 32.50222313 80.10546875 26.41015625 C77.44154372 23.36072816 74.63728232 20.81864116 71 19 C68.75400784 18.87896319 66.50445024 18.8224932 64.25537109 18.79467773 C63.56257553 18.78477814 62.86977997 18.77487854 62.1559906 18.76467896 C59.86184122 18.73304503 57.56767111 18.70829914 55.2734375 18.68359375 C53.68445288 18.66302585 52.09547376 18.64202942 50.50650024 18.62062073 C46.32096805 18.56538309 42.13538634 18.51598131 37.94976807 18.46777344 C33.6800088 18.41757074 29.41032158 18.36187826 25.140625 18.30664062 C16.76047588 18.19903835 8.38026569 18.0981052 0 18 C0 12.06 0 6.12 0 0 Z " fill="#DEC13B" transform="translate(8,375)"/>
<path d="M0 0 C5.75391831 4.18925631 9.38649224 8.70793257 11.2265625 15.62109375 C12.07962038 23.52675801 11.8717462 30.94038011 7.2265625 37.62109375 C2.90648598 42.51463175 -2.19756511 46.60861816 -8.7734375 47.62109375 C-11.25359373 47.46986471 -13.73274302 47.30164085 -16.2109375 47.12109375 C-21.71483867 46.98291741 -21.71483867 46.98291741 -26.35546875 49.6015625 C-28.68222926 52.50686886 -30.72089726 55.51644206 -32.7734375 58.62109375 C-34.54465207 60.92460773 -36.39617933 63.15351204 -38.2734375 65.37109375 C-38.9706189 66.19782593 -38.9706189 66.19782593 -39.68188477 67.04125977 C-45.50692329 73.81415656 -51.86217606 79.53380264 -60.7734375 81.62109375 C-66.35903449 82.03582802 -71.92578149 81.9709142 -77.5234375 81.9140625 C-79.14867764 81.90845954 -80.77392288 81.90419275 -82.39916992 81.90119934 C-86.65385194 81.88980559 -90.90822132 81.8603863 -95.16278076 81.8270874 C-99.51342542 81.79626784 -103.86412114 81.78266872 -108.21484375 81.76757812 C-116.73453368 81.73551061 -125.25391055 81.68278819 -133.7734375 81.62109375 C-133.7734375 76.01109375 -133.7734375 70.40109375 -133.7734375 64.62109375 C-131.69482422 64.61698486 -129.61621094 64.61287598 -127.47460938 64.60864258 C-120.5853193 64.59139868 -113.69639789 64.54681995 -106.8073349 64.48900318 C-102.63287761 64.45479996 -98.4587837 64.42963367 -94.28417969 64.42553711 C-90.25082685 64.4212397 -86.21829277 64.39265911 -82.18519592 64.34766197 C-80.65117676 64.33473273 -79.11705938 64.33036303 -77.58299255 64.33493996 C-68.11724426 64.35659165 -61.15733162 63.96004317 -54.20332336 57.06408691 C-52.80735688 55.57688402 -51.53738758 54.03416654 -50.2734375 52.43359375 C-49.81493408 51.86624512 -49.35643066 51.29889648 -48.8840332 50.71435547 C-47.95625457 49.56564643 -47.03210859 48.41399287 -46.11181641 47.25927734 C-44.86345777 45.73127909 -43.54517131 44.26116044 -42.22265625 42.796875 C-40.16477713 40.47598542 -38.32530202 38.30682832 -36.7734375 35.62109375 C-37.16208404 32.16972534 -37.16208404 32.16972534 -38.7734375 28.62109375 C-39.6173743 18.99532184 -38.72386043 12.08497712 -32.5859375 4.43359375 C-23.75822421 -5.01811591 -11.33602289 -6.51729003 0 0 Z " fill="#FADC4D" transform="translate(141.7734375,208.37890625)"/>
<path d="M0 0 C6.79211271 3.37796014 11.29253504 8.53581616 14.34375 15.4296875 C16.67446272 22.68788877 15.80698598 28.51807552 12.69921875 35.40625 C9.17912331 41.80717826 5.11980772 45.54699709 -1.65234375 48.21875 C-8.17621861 50.03183681 -15.87605526 50.37448843 -22.17578125 47.59375 C-28.16198297 44.02480944 -33.67821637 37.71115815 -35.80078125 31.09375 C-36.66788751 21.77541087 -35.81433519 14.95432087 -30.86328125 6.96875 C-22.6624391 -2.04969877 -11.01402296 -4.151883 0 0 Z " fill="#FADB4D" transform="translate(206.80078125,308.90625)"/>
<path d="M0 0 C5.87101162 4.80934586 10.43292021 9.7469016 11.46875 17.515625 C11.54663625 26.82303178 10.64861632 33.69696682 4.390625 40.8359375 C-0.90769522 45.81830284 -6.70969979 48.0906551 -13.9375 48.4375 C-21.80599847 48.17159068 -28.59037024 44.65552202 -34 39 C-39.59239872 31.3659319 -40.37059359 23.22667712 -39 14 C-36.32752564 6.35431207 -31.18453503 1.54001635 -24 -2 C-16.58550407 -4.46645477 -6.70970528 -4.19879686 0 0 Z " fill="#FADC4D" transform="translate(142,413)"/>
<path d="M0 0 C0.66 0 1.32 0 2 0 C3.26171875 1.42578125 3.26171875 1.42578125 4.6875 3.3125 C7.76903443 7.07121113 10.43619032 8.44830471 15 10 C13.8553125 11.3303125 13.8553125 11.3303125 12.6875 12.6875 C10.11020814 15.69230472 7.55112615 18.71198294 4.99829102 21.73754883 C3.55998676 23.44047563 2.11821811 25.14041678 0.67578125 26.83984375 C-0.90131234 28.69794875 -2.46601139 30.56336 -4.01953125 32.44140625 C-9.49380098 38.9536865 -15.49636556 44.06815413 -24 46 C-29.58608034 46.41025611 -35.15215875 46.34982233 -40.75 46.29296875 C-42.37524014 46.28736579 -44.00048538 46.283099 -45.62573242 46.28010559 C-49.88041444 46.26871184 -54.13478382 46.23929255 -58.38934326 46.20599365 C-62.73998792 46.17517409 -67.09068364 46.16157497 -71.44140625 46.14648438 C-79.96109618 46.11441686 -88.48047305 46.06169444 -97 46 C-97 40.39 -97 34.78 -97 29 C-94.92138672 28.99589111 -92.84277344 28.99178223 -90.70117188 28.98754883 C-83.8118818 28.97030493 -76.92296039 28.9257262 -70.0338974 28.86790943 C-65.85944011 28.83370621 -61.6853462 28.80853992 -57.51074219 28.80444336 C-53.47738935 28.80014595 -49.44485527 28.77156536 -45.41175842 28.72656822 C-43.87773926 28.71363898 -42.34362188 28.70926928 -40.80955505 28.71384621 C-31.34362167 28.73549832 -24.38422124 28.33869999 -17.42982483 21.44309998 C-16.03412735 19.95600416 -14.76517549 18.41173733 -13.5 16.8125 C-13.03859619 16.25022705 -12.57719238 15.6879541 -12.10180664 15.10864258 C-8.5091566 10.71251256 -5.00719416 6.24017698 -1.55859375 1.73046875 C-1.04425781 1.15941406 -0.52992187 0.58835938 0 0 Z " fill="#E0C43A" transform="translate(105,244)"/>
</svg>
